<svg width="23" height="20" viewBox="0 0 23 20" fill="none" xmlns="http://www.w3.org/2000/svg">
<path d="M22.5964 9.61169L19.8777 3.26794C19.8078 3.10495 19.6917 2.96605 19.5436 2.86843C19.3956 2.77081 19.2222 2.71877 19.0448 2.71875H16.3261V0.90625C16.3261 0.665898 16.2306 0.43539 16.0606 0.265435C15.8907 0.0954798 15.6602 0 15.4198 0H0.919829V1.8125H14.5136V13.1914C14.1009 13.4315 13.7397 13.7507 13.4507 14.1308C13.1618 14.5109 12.9507 14.9444 12.8298 15.4063H7.13489C6.91432 14.552 6.38975 13.8075 5.65951 13.3123C4.92927 12.8171 4.0435 12.6052 3.16823 12.7164C2.29297 12.8276 1.48829 13.2541 0.905037 13.9162C0.321784 14.5782 0 15.4302 0 16.3125C0 17.1948 0.321784 18.0468 0.905037 18.7088C1.48829 19.3709 2.29297 19.7974 3.16823 19.9086C4.0435 20.0198 4.92927 19.8079 5.65951 19.3127C6.38975 18.8175 6.91432 18.073 7.13489 17.2188H12.8298C13.0269 17.9965 13.4778 18.6864 14.111 19.1791C14.7442 19.6719 15.5237 19.9394 16.3261 19.9394C17.1285 19.9394 17.9079 19.6719 18.5412 19.1791C19.1744 18.6864 19.6252 17.9965 19.8224 17.2188H21.7636C22.0039 17.2188 22.2344 17.1233 22.4044 16.9533C22.5744 16.7834 22.6698 16.5529 22.6698 16.3125V9.96875C22.6698 9.84599 22.6448 9.72451 22.5964 9.61169ZM3.63858 18.125C3.2801 18.125 2.92967 18.0187 2.63161 17.8195C2.33354 17.6204 2.10123 17.3373 1.96405 17.0061C1.82686 16.6749 1.79097 16.3105 1.86091 15.9589C1.93084 15.6073 2.10346 15.2844 2.35695 15.0309C2.61043 14.7774 2.93339 14.6048 3.28498 14.5348C3.63657 14.4649 4.001 14.5008 4.33219 14.638C4.66338 14.7752 4.94646 15.0075 5.14562 15.3055C5.34478 15.6036 5.45108 15.954 5.45108 16.3125C5.45108 16.7932 5.26012 17.2542 4.92021 17.5941C4.5803 17.934 4.11928 18.125 3.63858 18.125ZM16.3261 4.53125H18.4467L20.3897 9.0625H16.3261V4.53125ZM16.3261 18.125C15.9676 18.125 15.6172 18.0187 15.3191 17.8195C15.021 17.6204 14.7887 17.3373 14.6515 17.0061C14.5144 16.6749 14.4785 16.3105 14.5484 15.9589C14.6183 15.6073 14.791 15.2844 15.0444 15.0309C15.2979 14.7774 15.6209 14.6048 15.9725 14.5348C16.3241 14.4649 16.6885 14.5008 17.0197 14.638C17.3509 14.7752 17.634 15.0075 17.8331 15.3055C18.0323 15.6036 18.1386 15.954 18.1386 16.3125C18.1386 16.7932 17.9476 17.2542 17.6077 17.5941C17.2678 17.934 16.8068 18.125 16.3261 18.125ZM20.8573 15.4063H19.8224C19.6228 14.63 19.1712 13.9419 18.5385 13.4499C17.9057 12.9579 17.1276 12.6897 16.3261 12.6875V10.875H20.8573V15.4063Z" fill="#0AA288"/>
</svg>
